<?xml version="1.0" encoding="UTF-8"?>
<svg width="16" height="16" viewBox="0 0 16 16" xmlns="http://www.w3.org/2000/svg">
    <path fill="#C5C5C5" d="M13.5 4.2C13.5 5.3 10.5 6.2 8 6.2C5.5 6.2 2.5 5.3 2.5 4.2C2.5 3.1 5.5 2.2 8 2.2C10.5 2.2 13.5 3.1 13.5 4.2zM13.5 6.7V8.2C13.5 9.3 10.5 10.2 8 10.2C5.5 10.2 2.5 9.3 2.5 8.2V6.7C2.5 7.8 5.5 8.7 8 8.7C10.5 8.7 13.5 7.8 13.5 6.7zM13.5 10.7V12.2C13.5 13.3 10.5 14.2 8 14.2C5.5 14.2 2.5 13.3 2.5 12.2V10.7C2.5 11.8 5.5 12.7 8 12.7C10.5 12.7 13.5 11.8 13.5 10.7z"/>
</svg>